{
    "asset" : {
        "generator" : "Khronos glTF Blender I/O v0.9.36",
        "version" : "2.0"
    },
    "scene" : 0,
    "scenes" : [
        {
            "name" : "Scene",
            "nodes" : [
                0,
                1,
                2,
                3
            ]
        }
    ],
    "nodes" : [
        {
            "mesh" : 0,
            "name" : "Cylinder",
            "scale" : [
                1,
                -0.19910039007663727,
                1
            ]
        },
        {
            "mesh" : 1,
            "name" : "Cylinder.002"
        },
        {
            "mesh" : 2,
            "name" : "Top Inner Fan",
            "rotation" : [
                0,
                0.3032555878162384,
                0,
                0.9529092311859131
            ],
            "translation" : [
                0,
                0.06000000238418579,
                0
            ]
        },
        {
            "mesh" : 3,
            "name" : "Fan Blades",
            "translation" : [
                0,
                -0.01906663179397583,
                0.00477030873298645
            ]
        }
    ],
    "materials" : [
        {
            "doubleSided" : true,
            "name" : "Material.002",
            "pbrMetallicRoughness" : {
                "baseColorFactor" : [
                    0.12743771076202393,
                    0.12743768095970154,
                    0.12743771076202393,
                    1
                ],
                "metallicFactor" : 0,
                "roughnessFactor" : 0.5
            }
        },
        {
            "doubleSided" : true,
            "name" : "Material.001",
            "pbrMetallicRoughness" : {
                "baseColorFactor" : [
                    0.12743771076202393,
                    0.12743768095970154,
                    0.12743771076202393,
                    1
                ],
                "metallicFactor" : 0,
                "roughnessFactor" : 0.5
            }
        },
        {
            "doubleSided" : true,
            "name" : "Material.003",
            "pbrMetallicRoughness" : {
                "baseColorFactor" : [
                    0.12743771076202393,
                    0.12743768095970154,
                    0.12743771076202393,
                    1
                ],
                "metallicFactor" : 0,
                "roughnessFactor" : 0.5
            }
        },
        {
            "doubleSided" : true,
            "name" : "Material.004",
            "pbrMetallicRoughness" : {
                "baseColorFactor" : [
                    0.4292266070842743,
                    0.4292266070842743,
                    0.4292266070842743,
                    1
                ],
                "metallicFactor" : 0,
                "roughnessFactor" : 0.5
            }
        }
    ],
    "meshes" : [
        {
            "name" : "Cylinder.002",
            "primitives" : [
                {
                    "attributes" : {
                        "POSITION" : 0,
                        "NORMAL" : 1,
                        "TEXCOORD_0" : 2
                    },
                    "indices" : 3,
                    "material" : 0
                }
            ]
        },
        {
            "name" : "Cylinder.001",
            "primitives" : [
                {
                    "attributes" : {
                        "POSITION" : 4,
                        "NORMAL" : 5,
                        "TEXCOORD_0" : 6
                    },
                    "indices" : 7,
                    "material" : 1
                }
            ]
        },
        {
            "name" : "Cylinder.003",
            "primitives" : [
                {
                    "attributes" : {
                        "POSITION" : 8,
                        "NORMAL" : 9,
                        "TEXCOORD_0" : 10
                    },
                    "indices" : 11,
                    "material" : 2
                }
            ]
        },
        {
            "name" : "Plane.001",
            "primitives" : [
                {
                    "attributes" : {
                        "POSITION" : 12,
                        "NORMAL" : 13,
                        "TEXCOORD_0" : 14
                    },
                    "indices" : 15,
                    "material" : 3
                }
            ]
        }
    ],
    "accessors" : [
        {
            "bufferView" : 0,
            "componentType" : 5126,
            "count" : 2034,
            "max" : [
                1.047808051109314,
                1,
                1.043398380279541
            ],
            "min" : [
                -1.047808051109314,
                -1.6209187507629395,
                -1.043398380279541
            ],
            "type" : "VEC3"
        },
        {
            "bufferView" : 1,
            "componentType" : 5126,
            "count" : 2034,
            "type" : "VEC3"
        },
        {
            "bufferView" : 2,
            "componentType" : 5126,
            "count" : 2034,
            "type" : "VEC2"
        },
        {
            "bufferView" : 3,
            "componentType" : 5123,
            "count" : 4803,
            "type" : "SCALAR"
        },
        {
            "bufferView" : 4,
            "componentType" : 5126,
            "count" : 8182,
            "max" : [
                0.2855145335197449,
                0.29341959953308105,
                0.2855142652988434
            ],
            "min" : [
                -0.2855144143104553,
                -0.1376889944076538,
                -0.285514771938324
            ],
            "type" : "VEC3"
        },
        {
            "bufferView" : 5,
            "componentType" : 5126,
            "count" : 8182,
            "type" : "VEC3"
        },
        {
            "bufferView" : 6,
            "componentType" : 5126,
            "count" : 8182,
            "type" : "VEC2"
        },
        {
            "bufferView" : 7,
            "componentType" : 5123,
            "count" : 43776,
            "type" : "SCALAR"
        },
        {
            "bufferView" : 8,
            "componentType" : 5126,
            "count" : 712,
            "max" : [
                1.366103172302246,
                0.25406938791275024,
                1.366103172302246
            ],
            "min" : [
                -1.366103172302246,
                0.22899730503559113,
                -1.366103172302246
            ],
            "type" : "VEC3"
        },
        {
            "bufferView" : 9,
            "componentType" : 5126,
            "count" : 712,
            "type" : "VEC3"
        },
        {
            "bufferView" : 10,
            "componentType" : 5126,
            "count" : 712,
            "type" : "VEC2"
        },
        {
            "bufferView" : 11,
            "componentType" : 5123,
            "count" : 1365,
            "type" : "SCALAR"
        },
        {
            "bufferView" : 12,
            "componentType" : 5126,
            "count" : 36844,
            "max" : [
                0.9560496807098389,
                0.2525261342525482,
                0.9091347455978394
            ],
            "min" : [
                -0.9567289352416992,
                -0.06802406907081604,
                -0.9634406566619873
            ],
            "type" : "VEC3"
        },
        {
            "bufferView" : 13,
            "componentType" : 5126,
            "count" : 36844,
            "type" : "VEC3"
        },
        {
            "bufferView" : 14,
            "componentType" : 5126,
            "count" : 36844,
            "type" : "VEC2"
        },
        {
            "bufferView" : 15,
            "componentType" : 5123,
            "count" : 186816,
            "type" : "SCALAR"
        }
    ],
    "bufferViews" : [
        {
            "buffer" : 0,
            "byteLength" : 24408,
            "byteOffset" : 0
        },
        {
            "buffer" : 0,
            "byteLength" : 24408,
            "byteOffset" : 24408
        },
        {
            "buffer" : 0,
            "byteLength" : 16272,
            "byteOffset" : 48816
        },
        {
            "buffer" : 0,
            "byteLength" : 9606,
            "byteOffset" : 65088
        },
        {
            "buffer" : 0,
            "byteLength" : 98184,
            "byteOffset" : 74696
        },
        {
            "buffer" : 0,
            "byteLength" : 98184,
            "byteOffset" : 172880
        },
        {
            "buffer" : 0,
            "byteLength" : 65456,
            "byteOffset" : 271064
        },
        {
            "buffer" : 0,
            "byteLength" : 87552,
            "byteOffset" : 336520
        },
        {
            "buffer" : 0,
            "byteLength" : 8544,
            "byteOffset" : 424072
        },
        {
            "buffer" : 0,
            "byteLength" : 8544,
            "byteOffset" : 432616
        },
        {
            "buffer" : 0,
            "byteLength" : 5696,
            "byteOffset" : 441160
        },
        {
            "buffer" : 0,
            "byteLength" : 2730,
            "byteOffset" : 446856
        },
        {
            "buffer" : 0,
            "byteLength" : 442128,
            "byteOffset" : 449588
        },
        {
            "buffer" : 0,
            "byteLength" : 442128,
            "byteOffset" : 891716
        },
        {
            "buffer" : 0,
            "byteLength" : 294752,
            "byteOffset" : 1333844
        },
        {
            "buffer" : 0,
            "byteLength" : 373632,
            "byteOffset" : 1628596
        }
    ],
    "buffers" : [
        {
            "byteLength" : 2002228,
            "uri" : "data:application/octet-stream;base64,"
        }
    ]
}
